<?xml version="1.0" encoding="UTF-8" standalone="no"?>
<!-- Created with Inkscape (http://www.inkscape.org/) -->

<svg
   width="220mm"
   height="110mm"
   viewBox="0 0 831.49603 415.74802"
   version="1.1"
   id="svg1"
   inkscape:version="1.4.3 (0d15f75, 2025-12-25)"
   sodipodi:docname="drawing.svg"
   xmlns:inkscape="http://www.inkscape.org/namespaces/inkscape"
   xmlns:sodipodi="http://sodipodi.sourceforge.net/DTD/sodipodi-0.dtd"
   xmlns="http://www.w3.org/2000/svg"
   xmlns:svg="http://www.w3.org/2000/svg">
  <sodipodi:namedview
     id="namedview1"
     pagecolor="#ffffff"
     bordercolor="#000000"
     borderopacity="0.25"
     inkscape:showpageshadow="2"
     inkscape:pageopacity="0.0"
     inkscape:pagecheckerboard="0"
     inkscape:deskcolor="#d1d1d1"
     inkscape:document-units="mm"
     inkscape:zoom="1.4034943"
     inkscape:cx="479.87369"
     inkscape:cy="277.52161"
     inkscape:window-width="2560"
     inkscape:window-height="1369"
     inkscape:window-x="-8"
     inkscape:window-y="-8"
     inkscape:window-maximized="1"
     inkscape:current-layer="layer1" />
  <defs
     id="defs1" />
  <g
     inkscape:label="Layer 1"
     inkscape:groupmode="layer"
     id="layer1">
    <path
       d="m 34.473496,190.04857 c -8.770831,12.23142 -19.873149,36.82306 -7.993669,36.32345 11.435388,-0.4996 19.318033,-19.02271 26.53454,-30.10615 l 3.219672,0.33307 c -5.329112,13.45268 -13.98892,26.57118 1.665348,30.10615 10.769248,2.44251 48.073033,-44.52029 21.760543,-46.53758"
       style="fill:none;stroke:#000000;stroke-width:4.02519686;stroke-linecap:round;stroke-linejoin:round;stroke-dasharray:none"
       id="path1" />
    <path
       d="m 86.099245,207.86557 c 5.577805,-5.1648 18.984965,-5.28581 26.810985,-9.95545 7.82492,-4.66963 7.6062,-10.4606 -2.60793,-8.97178 -16.653479,2.42363 -41.522671,33.30695 -16.431432,38.46953 9.325942,1.92403 23.869982,-9.84443 31.419562,-19.26252"
       style="fill:none;stroke:#000000;stroke-width:4.02519686;stroke-linecap:round;stroke-linejoin:round;stroke-dasharray:none"
       id="path2" />
    <path
       d="m 125.29041,208.14535 c 8.08249,-10.34181 69.63374,-53.45766 44.79785,-59.73047 -10.76925,-2.72007 -32.72963,36.76754 -37.10394,57.62103 0,0 -1.99842,9.67789 -1.05472,14.39637 0.15543,0.75829 1.05472,2.0717 1.05472,2.0717 0.71054,-17.59718 27.85571,-34.7869 32.88506,-31.12313 16.96434,12.36021 -17.87473,39.70966 -38.49173,38.13646"
       style="fill:none;stroke:#000000;stroke-width:4.02519686;stroke-linecap:round;stroke-linejoin:round;stroke-dasharray:none"
       id="path3" />
    <path
       d="m 195.14302,202.26112 25.09124,-0.77716"
       style="fill:none;stroke:#000000;stroke-width:4.02519686;stroke-linecap:round;stroke-linejoin:round;stroke-dasharray:none"
       id="path4" />
    <path
       d="m 226.56233,208.14535 c 4.98272,-5.93752 29.78863,-30.63685 27.64477,-36.30458 -2.44251,-9.52912 -30.08728,51.4226 -21.98259,54.17931 8.32674,2.84997 19.09599,-9.60351 26.53454,-17.87473 m -22.64873,-18.09678 22.64873,-1.11023"
       style="fill:none;stroke:#000000;stroke-width:4.02519686;stroke-linecap:round;stroke-linejoin:round;stroke-dasharray:none"
       id="path5" />
    <path
       d="m 258.75926,208.14535 c 10.5472,-12.17591 9.1039,-9.28931 11.43539,-16.09836 -3.77479,16.48694 -18.87394,36.39673 -0.77716,35.71282 6.32832,-0.24092 11.34878,-11.87948 18.2078,-19.61446 m -10.43618,-32.52979 -3.21967,4.21888"
       style="fill:none;stroke:#000000;stroke-width:4.02519686;stroke-linecap:round;stroke-linejoin:round;stroke-dasharray:none"
       id="path6" />
    <path
       d="m 344.91294,208.14535 c -6.57368,8.08804 -10.56719,15.51882 -20.46823,18.29884 -7.00779,1.8552 -11.12341,-2.63236 -3.67043,-19.63334 2.11388,-4.85726 11.56862,-16.37037 5.56226,-15.79527 -10.56829,1.03696 -26.47459,21.85825 -37.82115,34.68697 l 11.90279,-33.68665 c -2.67011,5.48788 -7.06218,8.7997 -12.7932,15.85189"
       style="fill:none;stroke:#000000;stroke-width:4.02519686;stroke-linecap:round;stroke-linejoin:round;stroke-dasharray:none"
       id="path7" />
    <path
       d="m 356.90347,193.82336 c -8.77083,7.38304 -20.87235,24.62827 -13.65585,29.0692 13.65585,8.38225 28.97705,-18.8362 40.96756,-31.51171 l 3.88581,0.33307 c -8.54879,15.17354 -12.32358,32.41877 -20.65031,47.5923 -10.9913,19.90979 -18.54088,40.72664 -35.97151,30.88221 -10.76925,-5.99525 18.65189,-28.34755 29.31011,-34.37944 13.65586,-7.77162 26.86761,-15.70978 37.08175,-27.66364"
       style="fill:none;stroke:#000000;stroke-width:4.02519686;stroke-linecap:round;stroke-linejoin:round;stroke-dasharray:none"
       id="path8" />
    <path
       d="m 397.87111,208.14535 c 6.55037,-10.58384 13.65585,-20.79797 20.65031,-31.08649 -24.31407,15.26568 -6.66139,11.93499 11.54641,12.21255 -10.21413,13.11961 -24.31407,27.70028 -16.7645,35.06445 6.88344,6.73577 19.20701,-8.3445 25.53533,-16.19051"
       style="fill:none;stroke:#000000;stroke-width:4.02519686;stroke-linecap:round;stroke-linejoin:round;stroke-dasharray:none"
       id="path9" />
    <path
       d="m 497.34754,208.14535 c -3.27963,4.03569 -5.72991,8.10136 -9.97433,12.01937 -4.94608,4.56749 -9.60461,6.42047 -14.13991,5.35576 -7.41635,-1.72086 -0.11102,-18.48536 2.68676,-27.47824 -3.19747,5.71769 -9.13721,9.99208 -13.98892,14.32199 -10.85807,9.71453 -29.64319,23.74009 -24.66935,-0.49961 2.26487,-10.93578 30.03177,-29.31011 41.76692,-21.74166"
       style="fill:none;stroke:#000000;stroke-width:4.02519686;stroke-linecap:round;stroke-linejoin:round;stroke-dasharray:none"
       id="path10" />
    <path
       d="m 497.34848,208.14535 c 7.10548,-8.10469 9.1039,-12.47124 10.88027,-16.09836 7.77162,-15.06252 43.74313,-19.70662 29.08807,-4.10786 m -29.75421,5.82872 c -1.22125,13.45267 28.53296,12.73102 10.43618,31.19751 -3.10865,3.16416 -26.42352,13.61921 -18.87394,-0.35194"
       style="fill:none;stroke:#000000;stroke-width:4.02519686;stroke-linecap:round;stroke-linejoin:round;stroke-dasharray:none"
       id="path11" />
    <path
       d="m 537.03824,208.14535 c 4.98272,-5.93752 29.78863,-30.63685 27.64477,-36.30458 -2.44251,-9.52912 -30.08728,51.4226 -21.98259,54.17931 8.32674,2.84997 19.09599,-9.60351 26.53454,-17.87473 m -22.64873,-18.09678 22.64873,-1.11023"
       style="fill:none;stroke:#000000;stroke-width:4.02519686;stroke-linecap:round;stroke-linejoin:round;stroke-dasharray:none"
       id="path12" />
    <path
       d="m 569.23517,207.86557 c 5.5778,-5.1648 18.98496,-5.28581 26.81099,-9.95545 7.82491,-4.66963 7.6062,-10.4606 -2.60794,-8.97178 -16.65347,2.42363 -41.52267,33.30695 -16.43143,38.46953 9.32595,1.92403 23.86999,-9.84443 31.41956,-19.26252"
       style="fill:none;stroke:#000000;stroke-width:4.02519686;stroke-linecap:round;stroke-linejoin:round;stroke-dasharray:none"
       id="path13" />
    <path
       d="m 608.42621,208.14535 c 6.55037,-10.58384 13.65585,-20.79797 20.65031,-31.08649 -24.31407,15.26568 -6.66139,11.93499 11.54641,12.21255 -10.21413,13.11961 -24.31407,27.70028 -16.7645,35.06445 6.88344,6.73577 19.20701,-8.3445 25.53533,-16.19051"
       style="fill:none;stroke:#000000;stroke-width:4.02519686;stroke-linecap:round;stroke-linejoin:round;stroke-dasharray:none"
       id="path14" />
    <path
       d="m 649.39462,208.14535 c 10.5472,-12.17591 9.1039,-9.28931 11.43539,-16.09836 -3.77479,16.48694 -18.87394,36.39673 -0.77716,35.71282 6.32832,-0.24092 11.34878,-11.87948 18.2078,-19.61446 m -10.43618,-32.52979 -3.21967,4.21888"
       style="fill:none;stroke:#000000;stroke-width:4.02519686;stroke-linecap:round;stroke-linejoin:round;stroke-dasharray:none"
       id="path15" />
    <path
       d="m 677.81625,208.47842 c 14.8771,-23.74009 21.76054,-15.65427 41.30062,-12.87869 8.88185,1.27677 10.65823,-11.4909 1.4433,-4.21888 -14.76608,11.63856 -22.64873,24.96134 -37.41481,34.63923 -9.21492,6.05076 -7.99367,-7.6606 0.66614,-4.90389 15.09915,4.8295 21.31645,14.71057 35.30537,4.20111 6.10628,-4.64521 10.43618,-11.12119 15.09915,-17.17195"
       style="fill:none;stroke:#000000;stroke-width:4.02519686;stroke-linecap:round;stroke-linejoin:round;stroke-dasharray:none"
       id="path16" />
    <path
       d="m 734.21561,207.86557 c 5.5778,-5.1648 18.98496,-5.28581 26.81099,-9.95545 7.82491,-4.66963 7.6062,-10.4606 -2.60794,-8.97178 -16.65347,2.42363 -41.52267,33.30695 -16.43143,38.46953 9.32595,1.92403 23.86999,-9.84443 31.41956,-19.26252"
       style="fill:none;stroke:#000000;stroke-width:4.02519686;stroke-linecap:round;stroke-linejoin:round;stroke-dasharray:none"
       id="path17" />
    <path
       d="m 773.40665,208.14535 c 6.55037,-10.58384 13.65585,-20.79797 20.65031,-31.08649 -24.31407,15.26568 -6.66139,11.93499 11.54641,12.21255 -10.21413,13.11961 -24.31407,27.70028 -16.7645,35.06445 6.88344,6.73577 19.20701,-8.3445 25.53533,-16.19051"
       style="fill:none;stroke:#000000;stroke-width:4.02519686;stroke-linecap:round;stroke-linejoin:round;stroke-dasharray:none"
       id="path18" />
  </g>
</svg>
